<svg width="92" height="108" viewBox="0 0 92 108" fill="none" xmlns="http://www.w3.org/2000/svg">
<g clip-path="url(#clip0_1_24)">
<path d="M57.8461 63.3407C58.7049 66.2948 58.9451 66.1797 58.9451 69.7359C58.9451 84.409 46.3677 96.308 31.475 96.308C16.5774 96.308 4 84.414 4 69.7359C4 45.9862 26.1477 38.9431 30.4792 4.7752C30.6067 3.7416 32.3383 3.7416 32.4708 4.7752C34.6526 21.986 40.1938 29.0178 46.3077 38.0659" stroke="#8F8076" stroke-width="6" stroke-linecap="round"/>
<path d="M48.5049 99.604C50.5225 101.058 51.6039 102.061 53.9598 103.522C54.4685 103.835 55.0524 104 55.6477 104C56.2431 104 56.827 103.835 57.3357 103.522C85.73 85.903 88.615 68.4741 88.615 61.1304C88.615 52.0331 81.233 44.6594 72.131 44.6594C63.0291 44.6594 55.6477 54.6418 55.6477 54.6418C55.6477 54.6418 48.2664 44.6594 39.1642 44.6594C30.062 44.6594 22.6807 52.0331 22.6807 61.1304C22.6807 66.5244 21.5914 74.6122 33.6693 86.967" stroke="#8F8076" stroke-width="6" stroke-linecap="round" stroke-linejoin="round"/>
</g>
<defs>
<clipPath id="clip0_1_24">
<rect width="92" height="108" fill="white"/>
</clipPath>
</defs>
</svg>
